<?xml version="1.0" encoding="UTF-8" standalone="no"?>
<!DOCTYPE svg PUBLIC "-//W3C//DTD SVG 1.1//EN" "http://www.w3.org/Graphics/SVG/1.1/DTD/svg11.dtd">
<svg version="1.1" xmlns="http://www.w3.org/2000/svg" xmlns:xlink="http://www.w3.org/1999/xlink" viewBox="0 0 512 512"
    width="512" height="512" fill="#000000" stroke="#4CC2FF" stroke-width="8">
    <title>Bishop (Black)</title>
    <g>
        <polygon points="128,480 256,96 384,480" />
        <path
            d="M184 152.094C184 145.344 184.906 138.719 186.719 132.219C188.594 125.719 191.312 119.625 194.875 113.938L240.719 40.4375C242.344 37.8125 244.5 35.75 247.188 34.25C249.938 32.75 252.875 32 256 32C259.125 32 262.031 32.75 264.719 34.25C267.469 35.75 269.656 37.8125 271.281 40.4375L317.125 113.938C320.688 119.625 323.375 125.688 325.188 132.125C327.062 138.562 328 145.156 328 151.906C328 158.531 327.125 164.906 325.375 171.031C323.688 177.156 321.281 182.906 318.156 188.281C315.031 193.594 311.281 198.469 306.906 202.906C302.531 207.281 297.688 211.031 292.375 214.156C287.062 217.281 281.312 219.719 275.125 221.469C269 223.156 262.625 224 256 224C249.375 224 243 223.156 236.875 221.469C230.75 219.719 225 217.281 219.625 214.156C214.312 211.031 209.469 207.312 205.094 203C200.719 198.625 196.969 193.781 193.844 188.469C190.719 183.094 188.281 177.344 186.531 171.219C184.844 165.094 184 158.719 184 152.094Z" />
    </g>
</svg>
