<?xml version="1.0" encoding="UTF-8" standalone="no"?>
<!DOCTYPE svg PUBLIC "-//W3C//DTD SVG 1.1//EN" "http://www.w3.org/Graphics/SVG/1.1/DTD/svg11.dtd">
<svg version="1.1" xmlns="http://www.w3.org/2000/svg" xmlns:xlink="http://www.w3.org/1999/xlink" viewBox="0 0 512 512"
    width="512" height="512" fill="#000000" stroke="#4CC2FF" stroke-width="8">
    <title>Bishop (Black)</title>
    <g>
        <polygon points="128,480 256,96 384,480" />
        <path
            d="M310.562 141.312C314.188 148.438 316 156 316 164C316 169.5 315.281 174.812 313.844 179.938C312.406 185.062 310.375 189.844 307.75 194.281C305.188 198.719 302.062 202.781 298.375 206.469C294.75 210.094 290.719 213.219 286.281 215.844C281.844 218.406 277.062 220.406 271.938 221.844C266.812 223.281 261.5 224 256 224C250.5 224 245.188 223.281 240.062 221.844C234.938 220.406 230.156 218.406 225.719 215.844C221.281 213.219 217.219 210.094 213.531 206.469C209.906 202.781 206.781 198.719 204.156 194.281C201.594 189.844 199.594 185.062 198.156 179.938C196.719 174.812 196 169.5 196 164C196 156.062 197.75 148.531 201.25 141.406L255.531 32L310.562 141.312Z" />
    </g>
</svg>
